<svg width="30" height="30" viewBox="0 0 30 30" fill="none" xmlns="http://www.w3.org/2000/svg">
<g clip-path="url(#clip0_350_610)">
<path d="M29.9796 15.2807C29.9796 14.0516 29.8775 13.1547 29.6567 12.2245H15.2987V17.772H23.7265C23.5567 19.1507 22.6391 21.2268 20.6001 22.622L20.5715 22.8077L25.1112 26.2454L25.4258 26.2761C28.3143 23.6684 29.9796 19.8316 29.9796 15.2807Z" fill="#4285F4"/>
<path d="M15.2987 29.897C19.4277 29.897 22.8939 28.5681 25.4258 26.2761L20.6001 22.622C19.3088 23.5023 17.5756 24.1168 15.2987 24.1168C11.2547 24.1168 7.82241 21.5092 6.59889 17.905L6.41955 17.9199L1.69906 21.4909L1.63733 21.6586C4.15208 26.5418 9.31758 29.897 15.2987 29.897Z" fill="#34A853"/>
<path d="M6.59889 17.9049C6.27605 16.9748 6.08922 15.9782 6.08922 14.9484C6.08922 13.9186 6.27605 12.9221 6.5819 11.992L6.57335 11.7939L1.79371 8.16547L1.63733 8.23818C0.600882 10.2646 0.00616455 12.5401 0.00616455 14.9484C0.00616455 17.3568 0.600882 19.6322 1.63733 21.6586L6.59889 17.9049Z" fill="#FBBC05"/>
<path d="M15.2987 5.78004C18.1703 5.78004 20.1073 6.99252 21.2118 8.00576L25.5277 3.8866C22.8771 1.47824 19.4277 0 15.2987 0C9.31758 0 4.15208 3.35508 1.63733 8.23821L6.5819 11.992C7.82241 8.38775 11.2547 5.78004 15.2987 5.78004Z" fill="#EB4335"/>
</g>
<defs>
<clipPath id="clip0_350_610">
<rect width="30" height="30" fill="white"/>
</clipPath>
</defs>
</svg>
