<svg width="31" height="30" viewBox="0 0 31 30" fill="none" xmlns="http://www.w3.org/2000/svg">
<g clip-path="url(#clip0_350_270)">
<path d="M30.1093 15C30.1093 6.71578 23.3935 0 15.1093 0C6.82503 0 0.109253 6.71578 0.109253 15C0.109253 22.4869 5.59457 28.6925 12.7655 29.8178V19.3359H8.95691V15H12.7655V11.6953C12.7655 7.93594 15.005 5.85938 18.4313 5.85938C20.0724 5.85938 21.7889 6.15234 21.7889 6.15234V9.84375H19.8975C18.0341 9.84375 17.453 11 17.453 12.1863V15H21.6132L20.9481 19.3359H17.453V29.8178C24.6239 28.6925 30.1093 22.487 30.1093 15Z" fill="#1877F2"/>
<path d="M20.9481 19.3359L21.6132 15H17.453V12.1863C17.453 10.9999 18.0341 9.84375 19.8975 9.84375H21.7889V6.15234C21.7889 6.15234 20.0724 5.85938 18.4312 5.85938C15.005 5.85938 12.7655 7.93594 12.7655 11.6953V15H8.95691V19.3359H12.7655V29.8178C13.5408 29.9393 14.3245 30.0002 15.1093 30C15.894 30.0002 16.6777 29.9393 17.453 29.8178V19.3359H20.9481Z" fill="white"/>
</g>
<defs>
<clipPath id="clip0_350_270">
<rect width="30" height="30" fill="white" transform="translate(0.109253)"/>
</clipPath>
</defs>
</svg>
